<svg xmlns="http://www.w3.org/2000/svg" width="19.814" height="19.814" viewBox="0 0 19.814 19.814">
  <path id="expand" d="M19.814,16.049V21a1.059,1.059,0,0,1-1.061,1.061H13.8a1.063,1.063,0,0,1-.752-1.813l1.6-1.6L9.907,13.908,5.164,18.654l1.6,1.6a1.063,1.063,0,0,1-.752,1.813H1.061A1.059,1.059,0,0,1,0,21V16.049A1.063,1.063,0,0,1,1.813,15.3l1.6,1.6,4.744-4.741L3.413,7.411l-1.6,1.605A1.063,1.063,0,0,1,0,8.265V3.311A1.059,1.059,0,0,1,1.061,2.25H6.015a1.063,1.063,0,0,1,.752,1.813l-1.6,1.6,4.741,4.741L14.649,5.66l-1.6-1.6A1.063,1.063,0,0,1,13.8,2.25h4.953a1.059,1.059,0,0,1,1.061,1.061V8.265A1.063,1.063,0,0,1,18,9.017l-1.6-1.6-4.744,4.741L16.4,16.9,18,15.3A1.061,1.061,0,0,1,19.814,16.049Z" transform="translate(0 -2.25)" fill="rgba(0,0,0,0.1)"/>
</svg>
